# xmcd
#
# Track frame offsets: 
#        150
#        26340
#        45261
#        53486
#        72988
#        94120
#        107959
#        122567
#        140441
#        156965
#        159822
#        166722
#        176728
#        184728
#        209888
#        222309
#        225991
#
# Disc length: 3237 seconds
#
# Revision: 0
# Processed by: cddbd v1.5.2PL0 Copyright (c) Steve Scherf et al.
# Submitted via: ExactAudioCopy v1.0b3
#
DISCID=df0ca311
DTITLE=Björn J:son Lindh - En dag på gården
DYEAR=2002
DGENRE=Instrumental
TTITLE0=Salongsmusik nr 2
TTITLE1=Northern Lights
TTITLE2=Avskedet
TTITLE3=Vid fönstret 1905
TTITLE4=Der Wienerwalzer
TTITLE5=Skymning 1913
TTITLE6=Chopin i Alabama
TTITLE7=Över all tid
TTITLE8=Bars of S:t Brides
TTITLE9=En dag på gården: I. Gryningsemblem
TTITLE10=En dag på gården: II. Letargi
TTITLE11=En dag på gården: III. Budbäraren
TTITLE12=En dag på gården: IV. Gånglåt och Tally-Ho
TTITLE13=En dag på gården: V. Hästens sång
TTITLE14=En dag på gården: VI. Laika
TTITLE15=En dag på gården: VII. Vid groddammen
TTITLE16=En dag på gården: VIII. Katt-myggan dansar
EXTD=
EXTT0=
EXTT1=
EXTT2=
EXTT3=
EXTT4=
EXTT5=
EXTT6=
EXTT7=
EXTT8=
EXTT9=
EXTT10=
EXTT11=
EXTT12=
EXTT13=
EXTT14=
EXTT15=
EXTT16=
PLAYORDER=
